<svg width="1382" height="478" viewBox="0 0 1382 478" fill="none" xmlns="http://www.w3.org/2000/svg">
<path d="M219.794 1.12201C234.569 -0.174475 249.644 0.824081 264.346 2.57354C325.852 10.188 381.859 41.8076 420.164 90.5441C478.108 164.249 486.652 268.121 440.603 349.994C436.756 356.836 430.69 370.233 421.926 371.802C419.793 372.184 414.863 371.206 413.163 369.689C397.33 355.557 382.861 339.497 367.651 324.731C354.796 313.475 359.644 306.184 366.095 292.214C406.942 203.762 341.263 97.7652 244.184 93.7293C207.927 92.2218 181.399 98.677 150.443 120.881C86.2262 166.94 73.1605 257.647 120.272 321.107C139.954 347.559 168.118 366.451 200.053 374.624C207.565 376.521 216.398 377.484 224.193 378.627C225.27 357.694 224.439 329.885 224.429 308.44L224.339 263.229C224.324 253.793 222.625 236.451 228.772 228.806C232.424 224.265 240.302 226.454 244.281 229.971C252.147 236.922 259.603 244.579 267.114 252.03L307.673 292.241C356.588 340.476 405.119 389.098 453.263 438.103C459.186 444.157 475.854 457.63 466.132 466.372C461.307 470.712 453.077 471.058 446.835 471.053C420.509 471.037 394.15 471.373 367.827 471.205C354.857 471.128 348.304 463.961 339.774 455.322C332.211 447.663 324.607 440.033 317.338 432.09C316.622 444.118 319.188 455.67 304.957 460.125C228.406 484.09 145.403 467.888 83.2588 415.547C35.5241 375.18 5.84212 317.444 0.784832 255.121C-4.31523 192.631 15.5907 130.671 56.1299 82.8543C97.8904 33.4049 155.799 6.55273 219.794 1.12201Z" fill="#FEFF00"/>
<path d="M1065.86 0.478693C1075.04 0.523201 1124.52 -1.61606 1128.96 2.80605C1130.86 4.70483 1131.23 11.8771 1131.37 14.5814C1132.72 40.1901 1131.61 66.3782 1131.6 92.0408C1131.56 152.632 1130.69 213.319 1131.61 273.898C1143.52 264.212 1157.33 250.734 1168.71 240.105L1224.89 187.553C1235 178.031 1256.16 155.018 1269.25 151.99C1277.94 149.977 1298.33 150.908 1308.2 150.991C1330.19 151.176 1353.01 150.115 1374.84 152.256C1360.38 169.328 1337.86 188.49 1321.17 204.113L1218.43 299.907C1227.56 310.536 1242.87 325.133 1253.06 335.496L1314.41 398.059C1330.39 413.095 1345.51 430.044 1361.22 445.443C1368.11 452.202 1375.91 460.09 1381.86 467.617C1366.47 471.652 1344.56 470.59 1328.22 470.272C1312.16 469.96 1285.74 472.395 1270.7 468.057C1258.57 464.561 1238.95 439.613 1228.9 431.245C1203.93 407.538 1180.34 381.954 1154.68 359.082C1150.06 363.587 1136.28 375.906 1134.12 380.904C1127.71 395.747 1135.5 458.145 1129.14 467.528C1125.4 470.211 1118.44 470.406 1113.85 470.37C1095.62 470.227 1077.41 471.297 1059.18 470.815C1053.82 470.673 1045.21 470.52 1041.27 466.451C1040.88 466.04 1040.09 460.248 1040.08 459.25C1039.51 441.023 1039.8 422.678 1039.83 404.427L1039.98 296.93L1039.95 91.4249C1040.01 65.4765 1039.82 39.488 1039.97 13.544C1039.95 11.6488 1040.49 4.17145 1041.82 3.20232C1046.96 -0.5493 1059.86 0.47941 1065.86 0.478693Z" fill="#FEFF00"/>
<path d="M519.074 151.173C530.344 150.799 589.072 150.027 596.098 152.917C600.889 157.189 599.322 189.637 599.325 197.576L599.431 273.617C599.443 289.843 599.078 306.6 600.403 322.679C602.363 346.477 618.299 371.574 640.617 380.986C655.68 387.338 678.78 386.566 693.757 380.467C710.642 373.698 723.911 360.164 730.363 343.151C737.611 323.97 735.91 279.56 735.896 257.777L735.867 190.481C735.86 181.597 734.977 161.632 738.005 154.414C743.854 148.505 806.423 152.373 818.53 151.569C819.857 151.481 822.556 151.897 823.811 152.471C829.165 158.376 827.672 185.33 827.665 193.787L827.564 253.604C827.787 318.098 834.317 376.604 788.16 428.966C765.734 454.403 734.912 474.193 700.352 475.926C650.503 478.426 601.21 480.104 561.687 444.122C533.131 418.251 509.88 376.692 508.566 337.56C506.832 285.95 508.019 233.458 507.839 181.772C507.809 173.145 505.597 160.213 510.382 153.108C511.799 151.003 516.637 151.237 519.074 151.173Z" fill="#FEFF00"/>
<path d="M901.35 151.187C912.53 150.942 970.227 149.937 977.855 152.674C980.841 161.226 979.972 187.081 979.987 197.331L979.994 264.758L980.023 388.894C980.03 412.586 980.941 441.246 978.896 465.086C978.53 469.323 972.136 469.773 968.541 470.293C955.25 470.687 900.252 472.444 891.282 467.875C887.686 462.639 888.878 422.022 888.885 413.735L888.899 330.548L888.913 219.693C888.921 201.007 888.784 182.158 889 163.47C889.028 160.768 889.545 155.032 891.418 153.15C893.485 151.067 898.465 151.277 901.35 151.187Z" fill="#FEFF00"/>
<path d="M933.636 0.523926C942.061 1.86635 974.06 56.9583 977.167 67.2059C986.073 96.5476 965.771 123.907 935.545 125.603C925.211 125.642 915.064 122.842 906.783 116.336C864.522 83.1499 910.062 31.6051 933.636 0.523926Z" fill="#FEFF00"/>
</svg>
